<svg id="Capa_1" enable-background="new 0 0 512 512" height="512" viewBox="0 0 512 512" width="512" xmlns="http://www.w3.org/2000/svg"><g><path d="m256 0-130 256 130 256 4.696-1.548c57.098-18.822 106.192-54.491 141.974-103.153 36.524-49.671 55.83-108.61 55.83-170.444v-161.855z" fill="#4175df"/><path d="m53.5 75v161.855c0 61.834 19.306 120.773 55.831 170.444 35.782 48.662 84.875 84.331 141.974 103.153l4.695 1.548v-512z" fill="#4086f4"/><path d="m256 94.355-60 250.701h152.723c30.469-26.135 49.777-64.911 49.777-108.201 0-78.7-63.799-142.5-142.5-142.5z" fill="#4254b6"/><path d="m113.5 236.855c0 43.29 19.308 82.067 49.777 108.201h92.723v-250.701c-78.701 0-142.5 63.8-142.5 142.5z" fill="#4165cb"/><path d="m256 289.355-30 55.701 30 34.299c35.411 0 67.8-12.921 92.723-34.299-17.656-33.139-52.552-55.701-92.723-55.701z" fill="#e3e7ea"/><path d="m163.277 345.057c24.923 21.378 57.313 34.299 92.723 34.299v-90c-40.171-.001-75.067 22.561-92.723 55.701z" fill="#fff"/><path d="m256 154.355-26.25 55.311 26.25 49.689c28.995 0 52.5-23.505 52.5-52.5s-23.505-52.5-52.5-52.5z" fill="#e3e7ea"/><path d="m203.5 206.855c0 28.995 23.505 52.5 52.5 52.5v-105c-28.995 0-52.5 23.505-52.5 52.5z" fill="#fff"/></g></svg>